<?xml version="1.0" encoding="UTF-8"?>
<!DOCTYPE svg PUBLIC "-//W3C//DTD SVG 1.1//EN" "http://www.w3.org/Graphics/SVG/1.1/DTD/svg11.dtd">
<!-- Creator: CorelDRAW X7 -->
<svg xmlns="http://www.w3.org/2000/svg" xml:space="preserve" width="190.23mm" height="19.603mm" version="1.1" style="shape-rendering:geometricPrecision; text-rendering:geometricPrecision; image-rendering:optimizeQuality; fill-rule:evenodd; clip-rule:evenodd"
viewBox="0 0 19023 1960"
 xmlns:xlink="http://www.w3.org/1999/xlink">
 <defs>
  <style type="text/css">
   <![CDATA[
    .fil0 {fill:black}
    .fil1 {fill:#EC2024}
   ]]>
  </style>
 </defs>
 <g id="Layer_x0020_1">
  <metadata id="CorelCorpID_0Corel-Layer"/>
  <g id="_1510498841632">
   <path class="fil0" d="M12842 864l-688 0c0,-38 19,-267 26,-291 32,-111 117,-111 207,-111 52,0 105,0 157,0 100,0 227,-25 284,30 68,66 40,180 34,261 -2,22 -3,37 -5,60 -1,12 -2,12 -3,28 -1,13 2,23 -12,23zm-2305 -367l585 0c20,0 57,15 70,25 68,46 62,147 35,214 -45,111 -152,89 -300,89 -63,0 -133,3 -195,0 -48,-3 -127,0 -188,1 -53,0 -30,1 -23,-150 2,-27 7,-58 8,-87 2,-28 8,-63 8,-92zm1085 1421c-15,-17 -48,-129 -55,-150 -18,-54 -36,-99 -54,-153l-27 -76c-10,-26 -16,-51 -27,-77l-41 -116c-5,-15 -10,-24 -13,-39 12,-19 37,-39 54,-56l49 -62c34,-45 58,-93 83,-143 86,-178 109,-503 35,-702 -30,-81 -82,-153 -148,-207 -31,-25 -65,-47 -101,-64 -32,-15 -56,-25 -92,-37 -28,-9 -77,-25 -110,-25l-1074 0c-17,0 -14,40 -15,51 -10,99 -13,200 -24,300 -8,79 -9,162 -21,240l-35 423c-2,18 -4,44 -5,60 -2,60 -11,122 -15,180 -1,23 -2,37 -4,61 -3,37 -10,83 -11,122 -1,22 -3,37 -4,61l-15 180c-7,82 -19,162 -19,245l428 0c23,0 28,-4 50,-4 0,-19 5,-54 7,-73l42 -523 417 0 214 603 531 0 0 -11 440 0 27 -340c3,-36 7,-81 11,-115 2,-20 3,-41 4,-57 3,-74 -8,-73 50,-73 20,0 41,0 61,0 26,0 33,4 57,4 92,0 487,-4 525,0 14,1 13,1 13,13l-48 572 417 0c16,0 11,-15 11,-31l54 -634c2,-83 21,-240 26,-340 5,-100 27,-239 27,-340 0,-142 -10,-288 -92,-402 -8,-11 -18,-22 -27,-33 -35,-45 -85,-75 -140,-102 -41,-20 -136,-44 -196,-44l-531 0c-44,0 -102,12 -140,21 -265,67 -392,287 -434,540 -17,103 -26,264 -34,371l-27 298c-5,75 -8,153 -18,227l-12 152c-4,52 -11,101 -12,152 0,19 -4,57 -7,74 -3,27 -5,52 -5,79z"/>
   <path class="fil1" d="M4439 825l-562 0c-19,0 -10,-17 -8,-30 1,-17 2,-30 3,-43 4,-31 2,-55 7,-85l13 -170 585 0c27,0 68,21 83,35 44,41 39,73 39,129 0,95 -59,164 -160,164zm-1151 1109l428 0c23,0 28,-4 50,-4 8,-36 7,-108 12,-148l31 -371c2,-19 7,-55 7,-77l409 0c13,0 15,19 18,31l203 572 536 0 -195 -554c-9,-26 -21,-52 -27,-80 29,-20 83,-84 106,-116 16,-21 31,-44 43,-67 106,-197 115,-325 115,-551 0,-72 -19,-166 -41,-219 -38,-95 -46,-96 -99,-165 -26,-34 -110,-94 -151,-112 -58,-24 -139,-62 -203,-62l-1074 0c-17,0 -11,31 -14,52 -7,50 -8,120 -15,179l-21 239c-3,79 -17,184 -19,241 -2,97 -28,277 -30,363 -1,24 -2,37 -4,61l-57 662c-4,40 -8,84 -8,126z"/>
   <path class="fil1" d="M6729 665c0,117 -5,201 29,315 58,195 187,292 395,292l642 0c0,87 -46,172 -149,172l-963 0c0,21 -2,42 -4,65 -7,84 -17,171 -19,257 0,17 -2,16 -4,30l-11 164 1204 0c41,0 95,-15 126,-27 38,-14 68,-31 100,-53 149,-105 151,-285 164,-447 5,-71 21,-223 23,-283 1,-47 11,-94 11,-141l19 -211c3,-25 3,-48 4,-72 3,-45 8,-94 12,-141l46 -570 -432 0c-17,0 -11,17 -12,35l-28 316c-7,55 -10,122 -17,178 -4,31 -4,64 -7,91 -2,15 -4,35 -5,46 -1,18 6,37 -12,37l-577 0c-56,0 -96,-61 -96,-122l39 -581 -413 0c-23,0 -20,120 -24,153l-22 245c-5,65 -19,198 -19,252z"/>
   <path class="fil1" d="M2883 864l-688 0c0,-42 18,-264 26,-291 12,-42 35,-72 69,-91 52,-30 231,-20 302,-20 49,0 190,-11 231,3 126,45 85,199 79,288 -1,19 -2,39 -5,60 -5,35 2,51 -14,51zm-1224 1062l444 0 8 -115c2,-34 7,-78 10,-111 11,-106 17,-240 27,-344 2,-20 9,-15 46,-15 22,0 44,0 66,0 24,0 31,4 57,4l516 0c18,0 16,-3 17,9l-14 174c-1,14 -3,39 -5,56 -11,71 -8,152 -19,229l-10 117 425 0 30 -333c6,-58 8,-113 12,-171 2,-27 6,-54 8,-85 1,-25 7,-57 7,-84 0,-25 5,-58 7,-81 3,-29 4,-58 7,-84l40 -511c0,-113 -1,-165 -32,-274 -8,-28 -23,-58 -36,-83 -55,-109 -160,-175 -277,-204 -26,-7 -77,-16 -106,-16l-543 0c-50,0 -151,23 -199,42 -67,26 -149,76 -196,129l-99 146c-79,180 -81,290 -95,477 -2,21 -7,51 -8,73l-73 905c-3,18 -6,54 -7,74 -1,20 -4,58 -8,76z"/>
   <path class="fil1" d="M1059 1444l-608 0c0,-13 3,-15 4,-27l15 -213c3,-36 11,-82 12,-119l8 -121c9,-64 20,-225 26,-299l10 -120c3,-21 -5,-52 13,-52l562 0c86,0 132,39 156,111 59,175 35,447 -11,618 -24,87 -79,222 -187,222zm-1059 493l1101 0c175,0 312,-113 397,-256 87,-145 129,-322 158,-496 10,-61 17,-129 23,-195 22,-260 30,-689 -185,-870 -138,-116 -274,-97 -443,-97l-810 -4c-21,0 -46,-1 -66,0 -17,0 -16,-1 -19,15l-34 405c-1,37 -6,91 -10,124l-20 247c-2,42 -10,87 -12,126 -6,123 -25,262 -30,371 -4,87 -15,162 -19,252l-31 378z"/>
   <path class="fil0" d="M16107 715c-54,0 -95,3 -149,3l-436 0c0,-26 2,-63 6,-89 5,-31 3,-62 7,-92 14,-95 17,-267 31,-360l10 -135c1,-13 12,-34 -8,-34l-455 0c-20,0 -14,43 -16,64l-80 963c-1,22 -6,52 -7,73l-67 818c2,11 12,8 28,8l448 0c6,-28 5,-60 8,-92 1,-11 3,-30 4,-45l34 -418c1,-43 15,-146 15,-187l585 0c0,66 -25,292 -30,379l-24 282c-1,12 -2,30 -4,46 -1,11 -11,38 8,38l463 0c15,0 12,-12 12,-26l45 -558c1,-22 6,-52 8,-73l60 -746c3,-26 3,-48 6,-74 6,-46 6,-100 13,-148 3,-24 4,-51 5,-75 2,-33 22,-216 18,-224 -7,-11 -135,-5 -156,-5 -108,0 -209,-4 -321,-4 0,43 -27,295 -30,355 -3,57 -11,118 -16,176l-15 180z"/>
   <path class="fil0" d="M13859 497l581 0c36,0 74,21 94,40 56,51 39,167 4,226 -48,80 -167,59 -262,59 -113,0 -245,-6 -356,3l-79 0c-11,-4 -6,-9 -5,-30 2,-49 10,-100 12,-149 2,-50 11,-97 11,-149zm-593 1437l417 0c23,0 28,-4 50,-4 4,-17 7,-54 8,-73l11 -149c2,-20 6,-53 7,-73 4,-51 10,-97 12,-149 3,-49 12,-99 12,-152l650 0c46,0 101,-11 139,-22 78,-23 152,-61 209,-119 31,-31 50,-52 75,-89 44,-66 75,-142 96,-229 72,-284 80,-718 -259,-830 -72,-23 -133,-34 -230,-34 -349,0 -698,0 -1047,0l-142 1689c0,23 -3,37 -4,62l-11 118c-1,16 -2,22 -3,32 -2,13 -2,22 10,22z"/>
   <path class="fil0" d="M8327 1131c0,102 -3,169 8,271 4,36 11,84 19,119 21,91 31,124 71,204 56,111 176,209 342,209l1089 0c15,0 12,-16 14,-33 2,-16 1,-30 3,-46 6,-40 8,-133 15,-184 5,-31 3,-60 7,-92 12,-112 19,-255 31,-367 11,-106 14,-211 27,-318 2,-19 7,-23 -20,-23 -132,-2 -266,0 -398,0l-31 348c0,18 -2,52 -5,71l-14 139 -577 0c-37,0 -62,-15 -81,-33 -71,-68 -57,-166 -57,-276 0,-93 15,-203 32,-294 11,-56 44,-214 69,-259 12,-23 32,-43 52,-55 20,-11 55,-27 84,-27l979 0c0,-23 3,-34 4,-57 1,-15 4,-42 6,-59l21 -239c1,-25 13,-101 7,-115l-404 -1c-55,-7 -586,-3 -678,-3 -56,0 -139,20 -178,40 -28,14 -39,16 -70,37 -63,42 -123,101 -163,166 -8,12 -14,22 -20,33l-37 71c-63,151 -80,209 -110,382 -19,108 -37,278 -37,391z"/>
   <path class="fil0" d="M17835 978c-11,21 -271,339 -308,388 -75,100 -188,227 -264,328l-95 119c-14,19 -89,104 -94,124l605 1c17,-2 15,-6 24,-18 7,-10 13,-16 21,-25l273 -335c12,-15 26,-37 41,-47 11,17 21,33 33,52l50 79c6,9 10,17 16,26l34 54c11,18 21,32 33,51l101 162 604 0c-3,-15 -24,-47 -33,-62l-410 -675c-26,-40 -48,-83 -75,-124l-74 -125c41,-61 170,-223 223,-293l480 -629c3,-6 7,-10 -7,-10l-566 0c-10,0 -9,3 -14,9l-323 415c-3,-14 -21,-41 -29,-54l-94 -159c-11,-18 -20,-33 -31,-53l-94 -158 -608 0c2,22 57,102 69,122l512 837z"/>
   <path class="fil1" d="M6580 1934l15 -165c1,-22 3,-37 4,-57 3,-67 15,-155 19,-226 4,-73 39,-57 -180,-57l-730 0c-64,0 -140,16 -189,-55 -41,-60 -29,-106 -33,-151 -9,-106 4,-232 18,-330 13,-88 32,-171 54,-248 22,-73 42,-139 144,-158 40,-7 903,-1 978,-1 35,-1 18,-17 24,-53 3,-25 37,-408 32,-418 -22,-9 -336,9 -404,-1 -54,-7 -570,-3 -662,-3 -78,0 -155,21 -207,46 -66,33 -97,58 -148,108 -50,49 -73,96 -106,151 -15,25 -28,58 -40,85 -63,142 -102,375 -115,527 -7,79 -12,101 -11,180l-4 123c0,24 4,34 4,61 0,46 3,80 8,122 24,215 90,406 279,489 69,31 127,31 225,31 342,0 683,0 1025,0z"/>
   <path class="fil0" d="M16551 1937l474 0 44 -525c4,-28 3,-49 6,-78l49 -604 -470 0 -20 225c-1,24 -6,49 -7,77l-33 376c-4,27 -3,50 -7,77 -9,67 -10,161 -20,225l-16 227z"/>
   <path class="fil1" d="M16658 546l0 35 481 0c18,0 13,-27 17,-60 4,-24 2,-54 5,-75 3,-25 5,-46 5,-72 0,-30 6,-46 8,-72l7 -149c2,-23 8,-44 8,-69 1,-74 3,-32 12,-69 -7,-8 -11,-15 -27,-15l-459 0c-18,0 -9,21 -14,58 -7,51 -11,156 -19,211l-24 277z"/>
  </g>
 </g>
</svg>
